<svg width="224" height="79" viewBox="0 0 224 79" fill="none" xmlns="http://www.w3.org/2000/svg">
<path d="M117.136 29.508C116.352 30.5533 115.381 31.3093 114.224 31.776C113.067 32.224 111.9 32.448 110.724 32.448C109.231 32.448 107.896 32.1773 106.72 31.636C105.544 31.076 104.545 30.3293 103.724 29.396C102.903 28.4627 102.277 27.3893 101.848 26.176C101.419 24.9627 101.204 23.7027 101.204 22.396C101.204 20.94 101.4 19.5587 101.792 18.252C102.203 16.9267 102.8 15.7693 103.584 14.78C104.387 13.7907 105.376 13.0067 106.552 12.428C107.747 11.8307 109.137 11.532 110.724 11.532C111.807 11.532 112.824 11.6627 113.776 11.924C114.747 12.1667 115.605 12.5587 116.352 13.1C117.117 13.6413 117.752 14.332 118.256 15.172C118.779 15.9933 119.133 16.992 119.32 18.168H116.66C116.529 17.4027 116.287 16.7493 115.932 16.208C115.577 15.648 115.139 15.1907 114.616 14.836C114.093 14.4813 113.496 14.22 112.824 14.052C112.171 13.8653 111.471 13.772 110.724 13.772C109.511 13.772 108.465 14.0147 107.588 14.5C106.729 14.9853 106.02 15.6293 105.46 16.432C104.919 17.216 104.517 18.1213 104.256 19.148C103.995 20.156 103.864 21.192 103.864 22.256C103.864 23.3013 104.013 24.3093 104.312 25.28C104.611 26.232 105.049 27.0813 105.628 27.828C106.207 28.556 106.916 29.144 107.756 29.592C108.615 30.0213 109.604 30.236 110.724 30.236C111.769 30.236 112.693 30.068 113.496 29.732C114.299 29.396 114.971 28.9387 115.512 28.36C116.072 27.7627 116.492 27.072 116.772 26.288C117.052 25.4853 117.173 24.6267 117.136 23.712H110.752V21.472H119.516V32H117.836L117.136 29.508ZM135.862 31.944C135.451 32.1867 134.882 32.308 134.154 32.308C133.538 32.308 133.043 32.14 132.67 31.804C132.315 31.4493 132.138 30.88 132.138 30.096C131.485 30.88 130.719 31.4493 129.842 31.804C128.983 32.14 128.05 32.308 127.042 32.308C126.389 32.308 125.763 32.2333 125.166 32.084C124.587 31.9347 124.083 31.7013 123.654 31.384C123.225 31.0667 122.879 30.656 122.618 30.152C122.375 29.6293 122.254 29.004 122.254 28.276C122.254 27.4547 122.394 26.7827 122.674 26.26C122.954 25.7373 123.318 25.3173 123.766 25C124.233 24.664 124.755 24.412 125.334 24.244C125.931 24.076 126.538 23.936 127.154 23.824C127.807 23.6933 128.423 23.6 129.002 23.544C129.599 23.4693 130.122 23.376 130.57 23.264C131.018 23.1333 131.373 22.956 131.634 22.732C131.895 22.4893 132.026 22.144 132.026 21.696C132.026 21.1733 131.923 20.7533 131.718 20.436C131.531 20.1187 131.279 19.876 130.962 19.708C130.663 19.54 130.318 19.428 129.926 19.372C129.553 19.316 129.179 19.288 128.806 19.288C127.798 19.288 126.958 19.484 126.286 19.876C125.614 20.2493 125.25 20.968 125.194 22.032H122.814C122.851 21.136 123.038 20.38 123.374 19.764C123.71 19.148 124.158 18.6533 124.718 18.28C125.278 17.888 125.913 17.608 126.622 17.44C127.35 17.272 128.125 17.188 128.946 17.188C129.599 17.188 130.243 17.2347 130.878 17.328C131.531 17.4213 132.119 17.6173 132.642 17.916C133.165 18.196 133.585 18.5973 133.902 19.12C134.219 19.6427 134.378 20.324 134.378 21.164V28.612C134.378 29.172 134.406 29.5827 134.462 29.844C134.537 30.1053 134.761 30.236 135.134 30.236C135.339 30.236 135.582 30.1893 135.862 30.096V31.944ZM131.998 24.524C131.699 24.748 131.307 24.916 130.822 25.028C130.337 25.1213 129.823 25.2053 129.282 25.28C128.759 25.336 128.227 25.4107 127.686 25.504C127.145 25.5787 126.659 25.7093 126.23 25.896C125.801 26.0827 125.446 26.3533 125.166 26.708C124.905 27.044 124.774 27.5107 124.774 28.108C124.774 28.5 124.849 28.836 124.998 29.116C125.166 29.3773 125.371 29.592 125.614 29.76C125.875 29.928 126.174 30.0493 126.51 30.124C126.846 30.1987 127.201 30.236 127.574 30.236C128.358 30.236 129.03 30.1333 129.59 29.928C130.15 29.704 130.607 29.4333 130.962 29.116C131.317 28.78 131.578 28.4253 131.746 28.052C131.914 27.66 131.998 27.296 131.998 26.96V24.524ZM138.217 12.008H140.597V32H138.217V12.008ZM157.108 31.944C156.698 32.1867 156.128 32.308 155.4 32.308C154.784 32.308 154.29 32.14 153.916 31.804C153.562 31.4493 153.384 30.88 153.384 30.096C152.731 30.88 151.966 31.4493 151.088 31.804C150.23 32.14 149.296 32.308 148.288 32.308C147.635 32.308 147.01 32.2333 146.412 32.084C145.834 31.9347 145.33 31.7013 144.9 31.384C144.471 31.0667 144.126 30.656 143.864 30.152C143.622 29.6293 143.5 29.004 143.5 28.276C143.5 27.4547 143.64 26.7827 143.92 26.26C144.2 25.7373 144.564 25.3173 145.012 25C145.479 24.664 146.002 24.412 146.58 24.244C147.178 24.076 147.784 23.936 148.4 23.824C149.054 23.6933 149.67 23.6 150.248 23.544C150.846 23.4693 151.368 23.376 151.816 23.264C152.264 23.1333 152.619 22.956 152.88 22.732C153.142 22.4893 153.272 22.144 153.272 21.696C153.272 21.1733 153.17 20.7533 152.964 20.436C152.778 20.1187 152.526 19.876 152.208 19.708C151.91 19.54 151.564 19.428 151.172 19.372C150.799 19.316 150.426 19.288 150.052 19.288C149.044 19.288 148.204 19.484 147.532 19.876C146.86 20.2493 146.496 20.968 146.44 22.032H144.06C144.098 21.136 144.284 20.38 144.62 19.764C144.956 19.148 145.404 18.6533 145.964 18.28C146.524 17.888 147.159 17.608 147.868 17.44C148.596 17.272 149.371 17.188 150.192 17.188C150.846 17.188 151.49 17.2347 152.124 17.328C152.778 17.4213 153.366 17.6173 153.888 17.916C154.411 18.196 154.831 18.5973 155.148 19.12C155.466 19.6427 155.624 20.324 155.624 21.164V28.612C155.624 29.172 155.652 29.5827 155.708 29.844C155.783 30.1053 156.007 30.236 156.38 30.236C156.586 30.236 156.828 30.1893 157.108 30.096V31.944ZM153.244 24.524C152.946 24.748 152.554 24.916 152.068 25.028C151.583 25.1213 151.07 25.2053 150.528 25.28C150.006 25.336 149.474 25.4107 148.932 25.504C148.391 25.5787 147.906 25.7093 147.476 25.896C147.047 26.0827 146.692 26.3533 146.412 26.708C146.151 27.044 146.02 27.5107 146.02 28.108C146.02 28.5 146.095 28.836 146.244 29.116C146.412 29.3773 146.618 29.592 146.86 29.76C147.122 29.928 147.42 30.0493 147.756 30.124C148.092 30.1987 148.447 30.236 148.82 30.236C149.604 30.236 150.276 30.1333 150.836 29.928C151.396 29.704 151.854 29.4333 152.208 29.116C152.563 28.78 152.824 28.4253 152.992 28.052C153.16 27.66 153.244 27.296 153.244 26.96V24.524ZM163.215 24.384L158.175 17.524H161.227L164.699 22.592L168.311 17.524H171.167L166.183 24.188L171.783 32H168.731L164.699 26.008L160.667 32H157.783L163.215 24.384ZM179.499 33.932C179.219 34.6413 178.939 35.2387 178.659 35.724C178.398 36.2093 178.099 36.6013 177.763 36.9C177.446 37.2173 177.082 37.4413 176.671 37.572C176.279 37.7213 175.822 37.796 175.299 37.796C175.019 37.796 174.739 37.7773 174.459 37.74C174.179 37.7027 173.909 37.6373 173.647 37.544V35.36C173.853 35.4533 174.086 35.528 174.347 35.584C174.627 35.6587 174.861 35.696 175.047 35.696C175.533 35.696 175.934 35.5747 176.251 35.332C176.587 35.108 176.839 34.7813 177.007 34.352L177.987 31.916L172.247 17.524H174.935L179.163 29.368H179.219L183.279 17.524H185.799L179.499 33.932ZM110.052 66H107.028L100 46.008H102.856L108.568 63.34H108.624L114.392 46.008H117.164L110.052 66ZM119.114 58.776C119.114 59.6533 119.226 60.4373 119.45 61.128C119.693 61.8 120.019 62.3693 120.43 62.836C120.841 63.284 121.317 63.6293 121.858 63.872C122.418 64.1147 123.006 64.236 123.622 64.236C124.238 64.236 124.817 64.1147 125.358 63.872C125.918 63.6293 126.403 63.284 126.814 62.836C127.225 62.3693 127.542 61.8 127.766 61.128C128.009 60.4373 128.13 59.6533 128.13 58.776C128.13 57.8987 128.009 57.124 127.766 56.452C127.542 55.7613 127.225 55.1827 126.814 54.716C126.403 54.2493 125.918 53.8947 125.358 53.652C124.817 53.4093 124.238 53.288 123.622 53.288C123.006 53.288 122.418 53.4093 121.858 53.652C121.317 53.8947 120.841 54.2493 120.43 54.716C120.019 55.1827 119.693 55.7613 119.45 56.452C119.226 57.124 119.114 57.8987 119.114 58.776ZM116.594 58.776C116.594 57.712 116.743 56.7227 117.042 55.808C117.341 54.8747 117.789 54.072 118.386 53.4C118.983 52.7093 119.721 52.168 120.598 51.776C121.475 51.384 122.483 51.188 123.622 51.188C124.779 51.188 125.787 51.384 126.646 51.776C127.523 52.168 128.261 52.7093 128.858 53.4C129.455 54.072 129.903 54.8747 130.202 55.808C130.501 56.7227 130.65 57.712 130.65 58.776C130.65 59.84 130.501 60.8293 130.202 61.744C129.903 62.6587 129.455 63.4613 128.858 64.152C128.261 64.824 127.523 65.356 126.646 65.748C125.787 66.1213 124.779 66.308 123.622 66.308C122.483 66.308 121.475 66.1213 120.598 65.748C119.721 65.356 118.983 64.824 118.386 64.152C117.789 63.4613 117.341 62.6587 117.042 61.744C116.743 60.8293 116.594 59.84 116.594 58.776ZM139.14 67.932C138.86 68.6413 138.58 69.2387 138.3 69.724C138.039 70.2093 137.74 70.6013 137.404 70.9C137.087 71.2173 136.723 71.4413 136.312 71.572C135.92 71.7213 135.463 71.796 134.94 71.796C134.66 71.796 134.38 71.7773 134.1 71.74C133.82 71.7027 133.549 71.6373 133.288 71.544V69.36C133.493 69.4533 133.727 69.528 133.988 69.584C134.268 69.6587 134.501 69.696 134.688 69.696C135.173 69.696 135.575 69.5747 135.892 69.332C136.228 69.108 136.48 68.7813 136.648 68.352L137.628 65.916L131.888 51.524H134.576L138.804 63.368H138.86L142.92 51.524H145.44L139.14 67.932ZM160.28 65.944C159.869 66.1867 159.3 66.308 158.572 66.308C157.956 66.308 157.461 66.14 157.088 65.804C156.733 65.4493 156.556 64.88 156.556 64.096C155.903 64.88 155.137 65.4493 154.26 65.804C153.401 66.14 152.468 66.308 151.46 66.308C150.807 66.308 150.181 66.2333 149.584 66.084C149.005 65.9347 148.501 65.7013 148.072 65.384C147.643 65.0667 147.297 64.656 147.036 64.152C146.793 63.6293 146.672 63.004 146.672 62.276C146.672 61.4547 146.812 60.7827 147.092 60.26C147.372 59.7373 147.736 59.3173 148.184 59C148.651 58.664 149.173 58.412 149.752 58.244C150.349 58.076 150.956 57.936 151.572 57.824C152.225 57.6933 152.841 57.6 153.42 57.544C154.017 57.4693 154.54 57.376 154.988 57.264C155.436 57.1333 155.791 56.956 156.052 56.732C156.313 56.4893 156.444 56.144 156.444 55.696C156.444 55.1733 156.341 54.7533 156.136 54.436C155.949 54.1187 155.697 53.876 155.38 53.708C155.081 53.54 154.736 53.428 154.344 53.372C153.971 53.316 153.597 53.288 153.224 53.288C152.216 53.288 151.376 53.484 150.704 53.876C150.032 54.2493 149.668 54.968 149.612 56.032H147.232C147.269 55.136 147.456 54.38 147.792 53.764C148.128 53.148 148.576 52.6533 149.136 52.28C149.696 51.888 150.331 51.608 151.04 51.44C151.768 51.272 152.543 51.188 153.364 51.188C154.017 51.188 154.661 51.2347 155.296 51.328C155.949 51.4213 156.537 51.6173 157.06 51.916C157.583 52.196 158.003 52.5973 158.32 53.12C158.637 53.6427 158.796 54.324 158.796 55.164V62.612C158.796 63.172 158.824 63.5827 158.88 63.844C158.955 64.1053 159.179 64.236 159.552 64.236C159.757 64.236 160 64.1893 160.28 64.096V65.944ZM156.416 58.524C156.117 58.748 155.725 58.916 155.24 59.028C154.755 59.1213 154.241 59.2053 153.7 59.28C153.177 59.336 152.645 59.4107 152.104 59.504C151.563 59.5787 151.077 59.7093 150.648 59.896C150.219 60.0827 149.864 60.3533 149.584 60.708C149.323 61.044 149.192 61.5107 149.192 62.108C149.192 62.5 149.267 62.836 149.416 63.116C149.584 63.3773 149.789 63.592 150.032 63.76C150.293 63.928 150.592 64.0493 150.928 64.124C151.264 64.1987 151.619 64.236 151.992 64.236C152.776 64.236 153.448 64.1333 154.008 63.928C154.568 63.704 155.025 63.4333 155.38 63.116C155.735 62.78 155.996 62.4253 156.164 62.052C156.332 61.66 156.416 61.296 156.416 60.96V58.524ZM174.983 64.768C174.983 67.1387 174.442 68.912 173.359 70.088C172.276 71.264 170.578 71.852 168.263 71.852C167.591 71.852 166.9 71.7773 166.191 71.628C165.5 71.4787 164.866 71.236 164.287 70.9C163.727 70.564 163.26 70.1253 162.887 69.584C162.514 69.0427 162.308 68.38 162.271 67.596H164.651C164.67 68.0253 164.8 68.3893 165.043 68.688C165.304 68.9867 165.612 69.2293 165.967 69.416C166.34 69.6027 166.742 69.7333 167.171 69.808C167.6 69.9013 168.011 69.948 168.403 69.948C169.187 69.948 169.85 69.808 170.391 69.528C170.932 69.2667 171.38 68.8933 171.735 68.408C172.09 67.9413 172.342 67.372 172.491 66.7C172.659 66.028 172.743 65.2907 172.743 64.488V63.536H172.687C172.276 64.432 171.651 65.0947 170.811 65.524C169.99 65.9347 169.112 66.14 168.179 66.14C167.096 66.14 166.154 65.944 165.351 65.552C164.548 65.16 163.876 64.6373 163.335 63.984C162.794 63.312 162.383 62.5373 162.103 61.66C161.842 60.764 161.711 59.8213 161.711 58.832C161.711 57.9733 161.823 57.096 162.047 56.2C162.271 55.2853 162.644 54.464 163.167 53.736C163.69 52.9893 164.38 52.3827 165.239 51.916C166.098 51.4307 167.152 51.188 168.403 51.188C169.318 51.188 170.158 51.3933 170.923 51.804C171.688 52.196 172.286 52.7933 172.715 53.596H172.743V51.524H174.983V64.768ZM168.319 64.068C169.103 64.068 169.766 63.9093 170.307 63.592C170.867 63.256 171.315 62.8267 171.651 62.304C171.987 61.7627 172.23 61.156 172.379 60.484C172.547 59.812 172.631 59.14 172.631 58.468C172.631 57.8333 172.556 57.208 172.407 56.592C172.258 55.976 172.015 55.4253 171.679 54.94C171.362 54.436 170.942 54.0347 170.419 53.736C169.896 53.4373 169.262 53.288 168.515 53.288C167.75 53.288 167.096 53.4373 166.555 53.736C166.014 54.016 165.566 54.3987 165.211 54.884C164.875 55.3693 164.623 55.9293 164.455 56.564C164.306 57.1987 164.231 57.8613 164.231 58.552C164.231 59.2053 164.296 59.8587 164.427 60.512C164.558 61.1653 164.782 61.7627 165.099 62.304C165.416 62.8267 165.836 63.256 166.359 63.592C166.882 63.9093 167.535 64.068 168.319 64.068ZM188.625 57.376C188.588 56.816 188.457 56.284 188.233 55.78C188.028 55.276 187.739 54.8467 187.365 54.492C187.011 54.1187 186.581 53.8293 186.077 53.624C185.592 53.4 185.051 53.288 184.453 53.288C183.837 53.288 183.277 53.4 182.773 53.624C182.288 53.8293 181.868 54.1187 181.513 54.492C181.159 54.8653 180.879 55.304 180.673 55.808C180.468 56.2933 180.347 56.816 180.309 57.376H188.625ZM190.921 61.408C190.604 63.032 189.904 64.2547 188.821 65.076C187.739 65.8973 186.376 66.308 184.733 66.308C183.576 66.308 182.568 66.1213 181.709 65.748C180.869 65.3747 180.16 64.852 179.581 64.18C179.003 63.508 178.564 62.7053 178.265 61.772C177.985 60.8387 177.827 59.8213 177.789 58.72C177.789 57.6187 177.957 56.6107 178.293 55.696C178.629 54.7813 179.096 53.988 179.693 53.316C180.309 52.644 181.028 52.1213 181.849 51.748C182.689 51.3747 183.604 51.188 184.593 51.188C185.881 51.188 186.945 51.4587 187.785 52C188.644 52.5227 189.325 53.1947 189.829 54.016C190.352 54.8373 190.707 55.7333 190.893 56.704C191.099 57.6747 191.183 58.5987 191.145 59.476H180.309C180.291 60.1107 180.365 60.7173 180.533 61.296C180.701 61.856 180.972 62.36 181.345 62.808C181.719 63.2373 182.195 63.5827 182.773 63.844C183.352 64.1053 184.033 64.236 184.817 64.236C185.825 64.236 186.647 64.0027 187.281 63.536C187.935 63.0693 188.364 62.36 188.569 61.408H190.921ZM195.068 61.436C195.087 61.9587 195.208 62.4067 195.432 62.78C195.656 63.1347 195.946 63.424 196.3 63.648C196.674 63.8533 197.084 64.0027 197.532 64.096C197.999 64.1893 198.475 64.236 198.96 64.236C199.334 64.236 199.726 64.208 200.136 64.152C200.547 64.096 200.92 63.9933 201.256 63.844C201.611 63.6947 201.9 63.48 202.124 63.2C202.348 62.9013 202.46 62.528 202.46 62.08C202.46 61.464 202.227 60.9973 201.76 60.68C201.294 60.3627 200.706 60.1107 199.996 59.924C199.306 59.7187 198.55 59.5413 197.728 59.392C196.907 59.224 196.142 59 195.432 58.72C194.742 58.4213 194.163 58.0107 193.696 57.488C193.23 56.9653 192.996 56.2373 192.996 55.304C192.996 54.576 193.155 53.9507 193.472 53.428C193.808 52.9053 194.228 52.4853 194.732 52.168C195.255 51.832 195.834 51.5893 196.468 51.44C197.122 51.272 197.766 51.188 198.4 51.188C199.222 51.188 199.978 51.2627 200.668 51.412C201.359 51.5427 201.966 51.7853 202.488 52.14C203.03 52.476 203.459 52.9427 203.776 53.54C204.094 54.1187 204.28 54.8467 204.336 55.724H201.956C201.919 55.2573 201.798 54.8747 201.592 54.576C201.387 54.2587 201.126 54.0067 200.808 53.82C200.491 53.6333 200.136 53.5027 199.744 53.428C199.371 53.3347 198.988 53.288 198.596 53.288C198.242 53.288 197.878 53.316 197.504 53.372C197.15 53.428 196.823 53.5307 196.524 53.68C196.226 53.8107 195.983 53.9973 195.796 54.24C195.61 54.464 195.516 54.7627 195.516 55.136C195.516 55.5467 195.656 55.892 195.936 56.172C196.235 56.4333 196.608 56.6573 197.056 56.844C197.504 57.012 198.008 57.1613 198.568 57.292C199.128 57.404 199.688 57.5253 200.248 57.656C200.846 57.7867 201.424 57.9453 201.984 58.132C202.563 58.3187 203.067 58.5707 203.496 58.888C203.944 59.1867 204.299 59.5693 204.56 60.036C204.84 60.5027 204.98 61.0813 204.98 61.772C204.98 62.6493 204.794 63.3773 204.42 63.956C204.066 64.5347 203.59 65.0013 202.992 65.356C202.414 65.7107 201.751 65.9533 201.004 66.084C200.276 66.2333 199.548 66.308 198.82 66.308C198.018 66.308 197.252 66.224 196.524 66.056C195.796 65.888 195.152 65.6173 194.592 65.244C194.032 64.852 193.584 64.348 193.248 63.732C192.912 63.0973 192.726 62.332 192.688 61.436H195.068Z" fill="black"/>
<g clip-path="url(#clip0_61_1829)">
<ellipse cx="12.5" cy="9" rx="3.5" ry="3" fill="#E2F87F"/>
<ellipse cx="71.5" cy="66" rx="3.5" ry="3" fill="#E2F87F"/>
<path d="M47.6327 64.6217C62.6637 61.8025 72.506 47.0675 69.6161 31.7102C66.7261 16.3528 52.1983 6.18863 37.1673 9.00778C22.1362 11.8269 12.2939 26.5619 15.1839 41.9192C18.0738 57.2766 32.6017 67.4408 47.6327 64.6217Z" fill="#642DFF"/>
<path d="M24.8787 60.7753C20.1084 60.7265 16.0842 60.409 12.1457 59.4443C9.22235 58.7238 6.4091 57.7103 3.97502 55.8908C2.21368 54.5842 0.868205 52.9479 0.293322 50.7987C-0.330487 48.4664 0.134312 46.2684 1.17399 44.1436C2.40938 41.6159 4.24411 39.5522 6.28678 37.6595C8.48846 35.6202 10.9225 33.874 13.4789 32.2988C13.7236 32.1522 13.8459 31.9691 13.907 31.676C16.1209 21.0278 24.4506 12.3823 35.0187 9.67136C38.4924 8.77994 41.9907 8.4136 45.55 8.79215C51.4946 9.41492 56.7786 11.6374 61.3287 15.4961C62.6008 16.5707 63.7261 17.8285 64.8759 19.0252C65.1694 19.3304 65.4385 19.4525 65.8422 19.477C69.0958 19.6723 72.3004 20.1364 75.4317 21.0766C77.9759 21.8459 80.3977 22.8839 82.4771 24.5813C84.1773 25.9733 85.4249 27.6707 85.853 29.8687C86.2689 31.9813 85.8285 33.9717 84.9112 35.8766C83.7125 38.3922 81.9144 40.4436 79.884 42.312C76.8016 45.1572 73.3157 47.404 69.6462 49.3945C63.4937 52.7281 56.9743 55.1704 50.247 57.0509C45.3788 58.4186 40.4373 59.3832 35.4223 60.0304C31.6795 60.5067 27.9244 60.7509 24.8787 60.7509V60.7753ZM15.2036 48.3443C14.0783 45.8044 13.5646 43.0935 13.1854 40.2605C11.9867 41.3961 10.9225 42.544 10.2498 43.9849C9.54037 45.5357 9.785 46.9522 11.106 48.0512C11.8277 48.6618 12.6594 49.1624 13.5156 49.5532C15.7907 50.5912 18.237 50.9941 20.7078 51.2384C24.8298 51.6535 28.9396 51.4948 33.0494 51.0552C36.8534 50.64 40.6207 49.9684 44.3391 49.0648C50.6017 47.5506 56.6808 45.5357 62.454 42.6661C65.8177 41.0054 69.0346 39.1004 71.8112 36.5605C73.0221 35.4492 74.1229 34.2525 74.7834 32.7261C75.5785 30.8945 75.2238 29.4902 73.6459 28.2568C72.7775 27.573 71.7867 27.0968 70.747 26.7304C70.27 26.5595 69.7807 26.4007 69.3037 26.242C69.7563 27.744 70.2088 29.1849 70.6369 30.6258C71.0773 32.1034 71.2485 33.6176 71.3586 35.0096C70.3434 35.437 69.3893 35.8278 68.4353 36.2308C68.0928 31.1387 66.5516 26.3763 63.4815 22.1634C60.4114 17.9384 56.3994 14.8978 51.4946 13.0783C46.602 11.2588 41.587 10.9169 36.5232 12.1014C30.0649 13.6034 24.7686 16.9981 21.0136 22.4809C15.6439 30.3327 14.8978 38.7707 18.2125 47.5872C17.6744 47.6605 17.1606 47.6971 16.6591 47.8192C16.1576 47.9413 15.6928 48.1611 15.1791 48.3443H15.2036ZM13.2343 36.0598C13.2343 36.0598 13.1731 36.011 13.1487 35.9743C13.0875 36.011 13.0264 36.0354 12.9774 36.072C11.0326 37.403 9.18566 38.844 7.50993 40.5047C5.91983 42.0799 4.50097 43.7651 3.6203 45.8532C2.39715 48.7595 3.04542 51.2384 5.51619 53.2044C6.84943 54.2667 8.36614 54.9994 9.96848 55.5611C13.7603 56.9044 17.6988 57.3928 21.6863 57.576C25.9796 57.7714 30.2606 57.5149 34.5294 56.9776C39.4832 56.3549 44.3758 55.3535 49.195 54.0469C55.9836 52.1908 62.5397 49.773 68.7166 46.3783C72.1292 44.51 75.3583 42.373 78.196 39.6743C79.8473 38.0991 81.3151 36.3895 82.2202 34.2648C83.4678 31.3585 82.844 28.8186 80.3488 26.877C79.5171 26.2298 78.5752 25.6803 77.6212 25.2162C74.8568 23.8852 71.8846 23.2747 68.8756 22.8473C68.3986 22.7862 67.9338 22.7252 67.4567 22.6763L67.4201 22.8106C67.5668 22.8839 67.7136 22.9816 67.8604 23.0304C69.0346 23.3479 70.2455 23.5922 71.3953 23.9707C73.3523 24.6057 75.1626 25.5337 76.6182 27.0357C77.9392 28.4034 78.5508 30.0153 78.2939 31.908C78.0982 33.3001 77.5355 34.5456 76.7894 35.7179C75.5418 37.6595 73.915 39.2347 72.1292 40.6757C68.6799 43.4354 64.827 45.4991 60.7783 47.2331C53.2682 50.4446 45.4522 52.545 37.3916 53.8149C32.3522 54.6087 27.2761 54.9994 22.1756 54.6453C19.2278 54.4377 16.3411 53.9737 13.5523 52.9601C11.6931 52.2763 9.94401 51.3727 8.57408 49.9073C7.25307 48.4908 6.6415 46.8423 6.95952 44.8885C7.22861 43.24 7.98697 41.8113 8.96549 40.4925C10.0908 38.9661 11.4485 37.6717 12.9285 36.4872C13.0631 36.3773 13.1487 36.2186 13.2588 36.0964L13.2343 36.0598Z" fill="black"/>
<path d="M12.2561 18.4999C11.3143 18.4999 10.7638 17.926 10.7272 16.9247C10.6171 14.0673 8.83126 11.7593 6.15255 11.0389C5.66329 10.9046 5.1618 10.8435 4.6603 10.8191C3.62062 10.7702 3.02128 10.2452 2.99681 9.30489C2.97235 8.35241 3.5717 7.75406 4.62361 7.71743C6.53173 7.65637 8.1096 6.89928 9.32052 5.43393C10.2501 4.3105 10.6905 3.0039 10.7272 1.55076C10.7638 0.402908 11.6934 -0.256497 12.7943 0.0854167C13.4059 0.280796 13.7728 0.744823 13.7973 1.44086C13.834 2.32007 13.944 3.18707 14.3232 3.9808C15.3996 6.25208 17.1854 7.52205 19.7296 7.69301C19.8641 7.69301 20.0109 7.69301 20.1454 7.71743C21.0383 7.81512 21.5765 8.43789 21.5398 9.3171C21.5031 10.1963 20.9283 10.7702 20.0231 10.7947C17.9682 10.8313 16.2925 11.6617 15.0449 13.298C14.2131 14.3848 13.8462 15.6303 13.8095 16.9857C13.785 17.9504 13.1979 18.4999 12.2683 18.4999H12.2561ZM9.85871 9.25604C10.6293 10.0498 11.4733 10.9046 12.3295 11.7716C12.9411 10.7458 13.7973 9.91545 14.8859 9.25604C13.7728 8.59664 12.9288 7.72964 12.3295 6.75274C11.4733 7.61974 10.6415 8.47453 9.87094 9.26826L9.85871 9.25604Z" fill="black"/>
<path d="M71.7138 57.051C72.6556 57.051 73.1938 57.6127 73.2428 58.6262C73.3651 61.2272 75.0897 63.3153 77.585 63.8526C77.9641 63.9381 78.3678 63.9503 78.7592 63.9747C79.6154 64.0236 80.1903 64.6097 80.2025 65.4767C80.2147 66.3437 79.6765 67.0031 78.8203 67.0275C77.2058 67.0764 75.8236 67.6137 74.7228 68.7982C73.7565 69.8239 73.2917 71.0572 73.2428 72.4615C73.2061 73.5605 72.3988 74.1711 71.3224 73.9391C70.613 73.7803 70.1971 73.2797 70.1726 72.486C70.1359 71.1427 69.7078 69.946 68.8272 68.9447C67.7997 67.7846 66.5154 67.1374 64.962 67.0642C64.7296 67.052 64.485 67.0398 64.2526 66.9787C63.5309 66.7833 63.1517 66.1117 63.2496 65.2936C63.3474 64.4998 63.8734 63.9992 64.6929 63.987C66.0751 63.9625 67.286 63.5229 68.3134 62.6071C69.5244 61.5325 70.1359 60.177 70.1849 58.5652C70.2093 57.6005 70.7964 57.0388 71.726 57.051H71.7138ZM71.7138 63.8526C71.1879 64.3777 70.5396 65.0127 70.0503 65.5011C70.5763 66.0384 71.2123 66.6978 71.7505 67.2473C72.2887 66.7223 72.9247 66.0751 73.4262 65.5866C72.8636 65.0127 72.2275 64.3777 71.7138 63.8526Z" fill="black"/>
<path d="M47.4735 65.3511C62.5046 62.532 72.3469 47.797 69.4569 32.4397C66.567 17.0823 52.0391 6.91812 37.0081 9.73727C21.9771 12.5564 12.1348 27.2914 15.0247 42.6487C17.9147 58.0061 32.4425 68.1703 47.4735 65.3511Z" stroke="black" stroke-width="2.67" stroke-miterlimit="10"/>
</g>
<defs>
<clipPath id="clip0_61_1829">
<rect width="86" height="74" fill="white"/>
</clipPath>
</defs>
</svg>
